<svg xmlns="http://www.w3.org/2000/svg" xmlns:xlink="http://www.w3.org/1999/xlink" width="165.284" height="136" viewBox="0 0 165.284 136">
  <defs>
    <clipPath id="clip-path">
      <rect id="Rectangle_5" data-name="Rectangle 5" width="165.284" height="136" fill="#fff"/>
    </clipPath>
  </defs>
  <g id="Group_2" data-name="Group 2" style="isolation: isolate">
    <g id="Group_2-2" data-name="Group 2" clip-path="url(#clip-path)">
      <path id="Path_1" data-name="Path 1" d="M32.69,124.106a8.706,8.706,0,1,0,8.706,8.706,8.716,8.716,0,0,0-8.706-8.706" transform="translate(-2.477 -12.818)" fill="#fff"/>
      <path id="Path_2" data-name="Path 2" d="M55.759,17.413a8.707,8.707,0,1,0-8.706-8.706,8.716,8.716,0,0,0,8.706,8.706" transform="translate(-4.86)" fill="#fff"/>
      <path id="Path_3" data-name="Path 3" d="M173.609,47.166a8.706,8.706,0,1,0,8.706,8.706,8.716,8.716,0,0,0-8.706-8.706" transform="translate(-17.031 -4.871)" fill="#fff"/>
      <path id="Path_4" data-name="Path 4" d="M118.148,60.537a17.27,17.27,0,0,0,15.957-23.216,17.344,17.344,0,0,0,11.065-16.14h-8.79a8.55,8.55,0,0,1-7.761,8.5,17.3,17.3,0,0,0-28.041,12.032A25.9,25.9,0,0,0,51.309,46.77,25.9,25.9,0,0,0,0,51.794V105.01H8.789v-33.8A25.873,25.873,0,0,0,50.816,58.856V105.01h8.79v-33.8a25.822,25.822,0,0,0,27.677,4.22,38.81,38.81,0,1,0,30.865-14.9M25.9,68.906A17.112,17.112,0,1,1,43.013,51.794,17.132,17.132,0,0,1,25.9,68.906m91.931-34.224a8.541,8.541,0,1,1-8.541,8.54,8.55,8.55,0,0,1,8.541-8.54m-.317,25.855a38.575,38.575,0,0,0-18.938,5.124,25.737,25.737,0,0,0,4.042-13.867c0-.1-.006-.195-.007-.291a17.339,17.339,0,0,0,14.9,9.034M59.606,51.794A17.112,17.112,0,1,1,76.717,68.906,17.131,17.131,0,0,1,59.606,51.794m58.226,77.6a30.04,30.04,0,1,1,30.039-30.04,30.074,30.074,0,0,1-30.039,30.04" transform="translate(0 -2.188)" fill="#fff"/>
    </g>
  </g>
</svg>
